<!DOCTYPE svg PUBLIC "-//W3C//DTD SVG 1.1//EN" "http://www.w3.org/Graphics/SVG/1.1/DTD/svg11.dtd">
<!-- Uploaded to: SVG Repo, www.svgrepo.com, Transformed by: SVG Repo Mixer Tools -->
<svg width="196px" height="196px" viewBox="0 0 24 24" fill="none" xmlns="http://www.w3.org/2000/svg">
<g id="SVGRepo_bgCarrier" stroke-width="0"/>
<g id="SVGRepo_tracerCarrier" stroke-linecap="round" stroke-linejoin="round"/>
<g id="SVGRepo_iconCarrier"> <path d="M20 10L20 9C20 8.07003 20 7.60504 19.8978 7.22354C19.6204 6.18827 18.8117 5.37962 17.7765 5.10222C17.395 5 16.93 5 16 5" stroke="#ebebeb" stroke-linejoin="round"/> <path d="M20 14L20 15C20 15.93 20 16.395 19.8978 16.7765C19.6204 17.8117 18.8117 18.6204 17.7765 18.8978C17.395 19 16.93 19 16 19" stroke="#ebebeb" stroke-linejoin="round"/> <path d="M10 19L9 19C7.13077 19 6.19615 19 5.5 18.5981C5.04394 18.3348 4.66523 17.9561 4.40192 17.5C4 16.8038 4 15.8692 4 14" stroke="#ebebeb" stroke-linejoin="round"/> <path d="M10 5L9 5C7.13077 5 6.19615 5 5.5 5.40192C5.04394 5.66523 4.66523 6.04394 4.40192 6.5C4 7.19615 4 8.13077 4 10" stroke="#ebebeb" stroke-linejoin="round"/> <path d="M10 21L10 3" stroke="#ebebeb" stroke-linecap="round" stroke-linejoin="round"/> </g>
</svg>